<svg xmlns="http://www.w3.org/2000/svg" xmlns:xlink="http://www.w3.org/1999/xlink" width="150" zoomAndPan="magnify" viewBox="0 0 112.5 32.999998" height="44" preserveAspectRatio="xMidYMid meet" version="1.0"><defs><g/><clipPath id="d6acf28dfb"><path d="M 0 4 L 112 4 L 112 32.925781 L 0 32.925781 Z M 0 4 " clip-rule="nonzero"/></clipPath></defs><g fill="#ffffff" fill-opacity="1"><g transform="translate(0.230397, 22.352918)"><g><path d="M 14.921875 -3.609375 L 14.921875 0 L 1.65625 0 L 1.65625 -16.53125 L 14.609375 -16.53125 L 14.609375 -12.921875 L 6.28125 -12.921875 L 6.28125 -10.125 L 13.625 -10.125 L 13.625 -6.640625 L 6.28125 -6.640625 L 6.28125 -3.609375 Z M 14.921875 -3.609375 "/></g></g></g><g fill="#ffffff" fill-opacity="1"><g transform="translate(18.144694, 22.352918)"><g><path d="M 12.09375 0 L 8.671875 -5.125 L 5.28125 0 L -0.046875 0 L 5.96875 -8.359375 L 0.21875 -16.53125 L 5.484375 -16.53125 L 8.78125 -11.75 L 12.046875 -16.53125 L 17.09375 -16.53125 L 11.328125 -8.546875 L 17.46875 0 Z M 12.09375 0 "/></g></g></g><g fill="#ffffff" fill-opacity="1"><g transform="translate(37.593121, 22.352918)"><g><path d="M 9.203125 -16.53125 C 10.703125 -16.53125 12 -16.28125 13.09375 -15.78125 C 14.195312 -15.289062 15.046875 -14.582031 15.640625 -13.65625 C 16.242188 -12.738281 16.546875 -11.65625 16.546875 -10.40625 C 16.546875 -9.164062 16.242188 -8.085938 15.640625 -7.171875 C 15.046875 -6.265625 14.195312 -5.5625 13.09375 -5.0625 C 12 -4.570312 10.703125 -4.328125 9.203125 -4.328125 L 6.328125 -4.328125 L 6.328125 0 L 1.65625 0 L 1.65625 -16.53125 Z M 8.921875 -8 C 9.878906 -8 10.601562 -8.207031 11.09375 -8.625 C 11.582031 -9.039062 11.828125 -9.632812 11.828125 -10.40625 C 11.828125 -11.175781 11.582031 -11.773438 11.09375 -12.203125 C 10.601562 -12.628906 9.878906 -12.84375 8.921875 -12.84375 L 6.328125 -12.84375 L 6.328125 -8 Z M 8.921875 -8 "/></g></g></g><g fill="#ffffff" fill-opacity="1"><g transform="translate(57.041547, 22.352918)"><g><path d="M 14.921875 -3.609375 L 14.921875 0 L 1.65625 0 L 1.65625 -16.53125 L 14.609375 -16.53125 L 14.609375 -12.921875 L 6.28125 -12.921875 L 6.28125 -10.125 L 13.625 -10.125 L 13.625 -6.640625 L 6.28125 -6.640625 L 6.28125 -3.609375 Z M 14.921875 -3.609375 "/></g></g></g><g fill="#ffffff" fill-opacity="1"><g transform="translate(74.955845, 22.352918)"><g><path d="M 8.875 -4.390625 L 6.328125 -4.390625 L 6.328125 0 L 1.65625 0 L 1.65625 -16.53125 L 9.203125 -16.53125 C 10.703125 -16.53125 12 -16.28125 13.09375 -15.78125 C 14.195312 -15.289062 15.046875 -14.582031 15.640625 -13.65625 C 16.242188 -12.738281 16.546875 -11.65625 16.546875 -10.40625 C 16.546875 -9.21875 16.265625 -8.175781 15.703125 -7.28125 C 15.148438 -6.394531 14.351562 -5.695312 13.3125 -5.1875 L 16.875 0 L 11.875 0 Z M 11.828125 -10.40625 C 11.828125 -11.175781 11.582031 -11.773438 11.09375 -12.203125 C 10.601562 -12.628906 9.878906 -12.84375 8.921875 -12.84375 L 6.328125 -12.84375 L 6.328125 -8 L 8.921875 -8 C 9.878906 -8 10.601562 -8.207031 11.09375 -8.625 C 11.582031 -9.039062 11.828125 -9.632812 11.828125 -10.40625 Z M 11.828125 -10.40625 "/></g></g></g><g fill="#ffffff" fill-opacity="1"><g transform="translate(94.475081, 22.352918)"><g><path d="M 5.171875 -12.8125 L 0.09375 -12.8125 L 0.09375 -16.53125 L 14.890625 -16.53125 L 14.890625 -12.8125 L 9.84375 -12.8125 L 9.84375 0 L 5.171875 0 Z M 5.171875 -12.8125 "/></g></g></g><g clip-path="url(#d6acf28dfb)"><path stroke-linecap="butt" transform="matrix(0.746681, -0.000508544, 0.000508544, 0.746681, 1.722234, 27.459158)" fill="none" stroke-linejoin="miter" d="M -0.0014776 3.000022 L 113.291516 2.99871 " stroke="#ffffff" stroke-width="6" stroke-opacity="1" stroke-miterlimit="4"/></g><g fill="#ffffff" fill-opacity="1"><g transform="translate(89.153831, 31.069483)"><g><path d="M 1.390625 -3.484375 L 0.015625 -3.484375 L 0.015625 -3.984375 L 3.3125 -3.984375 L 3.3125 -3.484375 L 1.953125 -3.484375 L 1.953125 0 L 1.390625 0 Z M 1.390625 -3.484375 "/></g></g></g><g fill="#ffffff" fill-opacity="1"><g transform="translate(93.89733, 31.069483)"><g><path d="M 2.390625 0.046875 C 1.992188 0.046875 1.632812 -0.0390625 1.3125 -0.21875 C 0.988281 -0.394531 0.734375 -0.640625 0.546875 -0.953125 C 0.359375 -1.265625 0.265625 -1.609375 0.265625 -1.984375 C 0.265625 -2.367188 0.359375 -2.71875 0.546875 -3.03125 C 0.734375 -3.34375 0.988281 -3.585938 1.3125 -3.765625 C 1.632812 -3.941406 1.992188 -4.03125 2.390625 -4.03125 C 2.785156 -4.03125 3.144531 -3.941406 3.46875 -3.765625 C 3.789062 -3.585938 4.039062 -3.34375 4.21875 -3.03125 C 4.40625 -2.726562 4.5 -2.378906 4.5 -1.984375 C 4.5 -1.597656 4.40625 -1.25 4.21875 -0.9375 C 4.039062 -0.632812 3.789062 -0.394531 3.46875 -0.21875 C 3.144531 -0.0390625 2.785156 0.046875 2.390625 0.046875 Z M 2.390625 -0.453125 C 2.679688 -0.453125 2.941406 -0.519531 3.171875 -0.65625 C 3.410156 -0.789062 3.597656 -0.972656 3.734375 -1.203125 C 3.867188 -1.441406 3.9375 -1.703125 3.9375 -1.984375 C 3.9375 -2.273438 3.867188 -2.535156 3.734375 -2.765625 C 3.597656 -3.003906 3.410156 -3.1875 3.171875 -3.3125 C 2.941406 -3.445312 2.679688 -3.515625 2.390625 -3.515625 C 2.097656 -3.515625 1.832031 -3.445312 1.59375 -3.3125 C 1.363281 -3.1875 1.179688 -3.003906 1.046875 -2.765625 C 0.910156 -2.535156 0.84375 -2.273438 0.84375 -1.984375 C 0.84375 -1.703125 0.910156 -1.441406 1.046875 -1.203125 C 1.179688 -0.972656 1.363281 -0.789062 1.59375 -0.65625 C 1.832031 -0.519531 2.097656 -0.453125 2.390625 -0.453125 Z M 2.390625 -0.453125 "/></g></g></g><g fill="#ffffff" fill-opacity="1"><g transform="translate(100.077805, 31.069483)"><g><path d="M 2.390625 0.046875 C 1.992188 0.046875 1.632812 -0.0390625 1.3125 -0.21875 C 0.988281 -0.394531 0.734375 -0.640625 0.546875 -0.953125 C 0.359375 -1.265625 0.265625 -1.609375 0.265625 -1.984375 C 0.265625 -2.367188 0.359375 -2.71875 0.546875 -3.03125 C 0.734375 -3.34375 0.988281 -3.585938 1.3125 -3.765625 C 1.632812 -3.941406 1.992188 -4.03125 2.390625 -4.03125 C 2.785156 -4.03125 3.144531 -3.941406 3.46875 -3.765625 C 3.789062 -3.585938 4.039062 -3.34375 4.21875 -3.03125 C 4.40625 -2.726562 4.5 -2.378906 4.5 -1.984375 C 4.5 -1.597656 4.40625 -1.25 4.21875 -0.9375 C 4.039062 -0.632812 3.789062 -0.394531 3.46875 -0.21875 C 3.144531 -0.0390625 2.785156 0.046875 2.390625 0.046875 Z M 2.390625 -0.453125 C 2.679688 -0.453125 2.941406 -0.519531 3.171875 -0.65625 C 3.410156 -0.789062 3.597656 -0.972656 3.734375 -1.203125 C 3.867188 -1.441406 3.9375 -1.703125 3.9375 -1.984375 C 3.9375 -2.273438 3.867188 -2.535156 3.734375 -2.765625 C 3.597656 -3.003906 3.410156 -3.1875 3.171875 -3.3125 C 2.941406 -3.445312 2.679688 -3.515625 2.390625 -3.515625 C 2.097656 -3.515625 1.832031 -3.445312 1.59375 -3.3125 C 1.363281 -3.1875 1.179688 -3.003906 1.046875 -2.765625 C 0.910156 -2.535156 0.84375 -2.273438 0.84375 -1.984375 C 0.84375 -1.703125 0.910156 -1.441406 1.046875 -1.203125 C 1.179688 -0.972656 1.363281 -0.789062 1.59375 -0.65625 C 1.832031 -0.519531 2.097656 -0.453125 2.390625 -0.453125 Z M 2.390625 -0.453125 "/></g></g></g><g fill="#ffffff" fill-opacity="1"><g transform="translate(106.25828, 31.069483)"><g><path d="M 0.59375 -3.984375 L 1.171875 -3.984375 L 1.171875 -0.5 L 3.328125 -0.5 L 3.328125 0 L 0.59375 0 Z M 0.59375 -3.984375 "/></g></g></g></svg>